/* XPM */
static char *coin61713508078[] = {
/* columns rows colors chars-per-pixel */
"14 16 5 1 ",
"  c #B0C4DE",
". c #14182E",
"X c #CF752B",
"o c #F0B541",
"O c #FFEE83",
/* pixels */
"              ",
"     ....     ",
"    .OOOO.    ",
"    .OOoo.    ",
"   .OOoooO.   ",
"   .OOoooo.   ",
"  .OOoooooO.  ",
"  .oOoooooo.  ",
"  .XXoooooo.  ",
"  .oXoooooX.  ",
"   .XXoooo.   ",
"   .XXoooX.   ",
"    .XXoo.    ",
"    .XXXX.    ",
"     ....     ",
"              "
};
