/* XPM */
static char *coin21713508078[] = {
/* columns rows colors chars-per-pixel */
"12 16 5 1 ",
"  c #B0C4DE",
". c #14182E",
"X c #CF752B",
"o c #F0B541",
"O c #FFEE83",
/* pixels */
"            ",
"    ....    ",
"   .OOOO.   ",
"   .ooOO.   ",
"  .OoooOO.  ",
"  .ooooOO.  ",
" .OoooooOO. ",
" .ooooooOo. ",
" .ooooooXX. ",
" .XoooooXo. ",
"  .ooooXX.  ",
"  .XoooXX.  ",
"   .ooXX.   ",
"   .XXXX.   ",
"    ....    ",
"            "
};
