/* XPM */
static char *coin31713508078[] = {
/* columns rows colors chars-per-pixel */
"10 16 5 1 ",
"  c #B0C4DE",
". c #14182E",
"X c #CF752B",
"o c #F0B541",
"O c #FFEE83",
/* pixels */
"          ",
"    ..    ",
"   .OO.   ",
"  .oOOo.  ",
"  .ooOO.  ",
"  .ooOo.  ",
" .oooOOO. ",
" .oooXoo. ",
" .oooXXX. ",
" .oooXoo. ",
"  .ooXX.  ",
"  .ooXo.  ",
"  .oXXX.  ",
"   .XX.   ",
"    ..    ",
"          "
};
