/* XPM */
static char *airborne1713424327[] = {
/* columns rows colors chars-per-pixel */
"19 25 6 1 ",
"  c #B0C4DE",
". c black",
"X c #3A0911",
"o c #811426",
"O c #A11B31",
"+ c white",
/* pixels */
"     XXXXXXX       ",
" XXXXoOOOOOOX      ",
"XooooOOOXXXXOX     ",
"XoooOOOX....XOX    ",
" XooOOX......XOX   ",
"  XoOOX......XOX   ",
"   XoOX......XOX   ",
"   XoOX.+...+XOX   ",
"   XoOX.+...+XoX   ",
"   XooOX.....XoX   ",
"    XoooX...XoX    ",
"     XXooXXXoX     ",
"   XXoooOOOOOoXX   ",
" XXooOOOOOOOOOooXX ",
"XooooOOOOOOOOOooooX",
"XooooOOOOOOOOOOOooX",
"XoooOOOOOOoOOOOOXoX",
" XoooXOoOoXoOOOooX ",
"  XXooXoooXooOoXX  ",
"    XXXXXX.XXXX    ",
"      .......      ",
"      ..   ..      ",
"      ..    .      ",
"       .    .      ",
"      .    .       "
};
