/* XPM */
static char *l_idle1713382042[] = {
/* columns rows colors chars-per-pixel */
"16 28 6 1 ",
"  c #B0C4DE",
". c black",
"X c #3A0911",
"o c #811426",
"O c #A11B31",
"+ c white",
/* pixels */
"     XXXXXXX    ",
"    XOOOOOOoX   ",
"   XOXXXXOOOoX  ",
"  XOX....XOOOoX ",
" XOX......XOOoX ",
" XOX......XOOooX",
" XOX+...+.XOoooX",
" XOX+...+.XOoXoX",
" XoX......XOoXoX",
" XoX.....XOooXX ",
"  XoX...XoooX   ",
"   XoXXXooXX    ",
"  XoOOOOOoooX   ",
" XoOOOOOOOOOoX  ",
" XoOOOOOOOOOoX  ",
" XOOOOOOOOOOOX  ",
" XOOOOOOOOOOOoX ",
"XoOOOOoOOOOOOoX ",
"XoOOOOoOOOOOOoX ",
"XooOOoXoOOOOOoX ",
"XooOooXooOoOoooX",
"XooooX.XooOooooX",
"XoXooX..XooooXoX",
" XooX...XooXoXX ",
"  XXX.  XXX XX  ",
"    .    ..     ",
"    .    .      ",
"    .    .      "
};
