/* XPM */
static char *_58dc49f40ed4cd0f64ad61db6fce422PW1EdFJ4uTs3TWNy[] = {
/* columns rows colors chars-per-pixel */
"34 49 11 1 ",
"  c #3F3851",
". c #89365C",
"X c #AE444E",
"o c #BF5753",
"O c #D25654",
"+ c #CD7363",
"@ c #E27F6D",
"# c #EDA27F",
"$ c #FBCA97",
"% c #FFEAB7",
"& c #FFFAD6",
/* pixels */
"                          O@@@@@@ ",
"             X+++X oXXX.  @@@#$$# ",
"             +++++ +XXXX  @@#$$$$ ",
"             X+++X oXXX.  @@$$$$% ",
"                          @@$$$$& ",
"          o+X X+++++o.    @@$$$$& ",
"          +++ +++++++X    @@$$$$% ",
"          X+o X+++++o.    @@$$$$$ ",
"                          @@$$$$$ ",
"           X+++++X oXXX.  @@$$$$% ",
"           +++++++ +XXXX  @@$$$$& ",
"           X+++++X oXXX.  @@$$$$& ",
"                          @@$$$$% ",
"          o+X X+++++o.    @@$$$$& ",
"          +++ +++++++X    @@$$$$% ",
"          X+o X+++++o.    @@$$$$$ ",
"                          @@$$$$% ",
"           X+++++X oXXX.  @@$$$$% ",
"           +++++++ +XXXX  @@#$$$$ ",
"           X+++++X oXXX.  @@@#$$# ",
"                          O@@@@@@ ",
"          o+X X+++++o.            ",
"          +++ +++++++X    O@@@@@@ ",
"          X+o X+++++o.    @@@#$$# ",
"                          @@#$$$$ ",
"           X+++++X oXXX.  @@$$$$$ ",
"           +++++++ +XXXX  @@$$$$% ",
"           X+++++X oXXX.  @@$$$$% ",
"                          @@$$$$& ",
"          o+X X+++++o.    @@$$$$% ",
"          +++ +++++++X    @@$$$$$ ",
"          X+o X+++++o.    @@#$$$$ ",
"                          @@@#$$# ",
"           X+++++X oXXX.  O@@@@@@ ",
"           +++++++ +XXXX          ",
"           X+++++X oXXX.  O@@@@@@ ",
"                          @@@#$$# ",
"          o+X X+++++o.    @@#$$$$ ",
"          +++ +++++++X    @@$$$$$ ",
"          X+o X+++++o.    @@$$$$% ",
"                          @@$$$$% ",
"           X+++++X oXXX.  @@$$$$% ",
"           +++++++ +XXXX  @@$$$$$ ",
"           X+++++X oXXX.  @@$$$$% ",
"                          @@$$$$$ ",
"              X+++++o.    @@#$$$$ ",
"              +++++++X    @@@#$$# ",
"              X+++++o.    O@@@@@@ ",
"                                  "
};
