/* XPM */
static char *run_frame11713380640[] = {
/* columns rows colors chars-per-pixel */
"17 26 6 1 ",
"  c #B0C4DE",
". c black",
"X c #3A0911",
"o c #811426",
"O c #A11B31",
"+ c white",
/* pixels */
"                 ",
"                 ",
"      XXXXXXX    ",
"     XoOOOOOOX   ",
"    XoOOOXXXXOX  ",
"   XoOOOX....XOX ",
"   XoOOX......XOX",
"  XooOOX......XOX",
" XooooOX.+...+XOX",
" XooXoOX.+...+XOX",
"  XXXoOX......XoX",
"    XooOX.....XoX",
"    XXoooX...XoX ",
"   XoOXXooXXXoXX ",
"  XooOOOOOOOOOoX ",
"  XoOOOOOOOOOOOX ",
" XooOOOOOOOOOOOX ",
" XoOOOOOOOoOOOOX ",
"XooOOOOOOoXoOOoX ",
"XoooOOoOooXooOoX ",
" XoOOoOooXXoOooX ",
"  XoooooX.XooooX ",
"   XoXoX...XXoX  ",
"    X X..  .XX   ",
"       ..  ..    ",
"        .  .     "
};
