/* XPM */
static char *run_frame71713380641[] = {
/* columns rows colors chars-per-pixel */
"16 28 6 1 ",
"  c #B0C4DE",
". c black",
"X c #3A0911",
"o c #811426",
"O c #A11B31",
"+ c white",
/* pixels */
"     XXXXXXX    ",
"    XoOOOOOOX   ",
"   XoOOOXXXXOX  ",
"  XoOOOX....XOX ",
"  XoOOX......XOX",
" XooOOX......XOX",
" XoooOX.+...+XOX",
" XoXoOX.+...+XOX",
" XoXoOX......XoX",
"  XXooOX.....XoX",
"    XoooX...XoX ",
"    XXXooXXXoX  ",
"   XoOOOOOOOOoX ",
"  XoOOOOOOOOOoX ",
"  XoOOOOOOOOOoX ",
"  XOOOOOOOOOOOX ",
" XoOOOOOOOOOOOX ",
" XoOOOOOOoOOOOoX",
" XoOOOOOoXoOOooX",
"XoooOoOooXooOooX",
"XooooOooX.XooooX",
"XoXooooX..XooXoX",
" XXoXooX...XooX ",
"  XX XXX  .XXX  ",
"     ..   ..    ",
"      . ..      ",
"      .         ",
"      .         "
};
