/* XPM */
static char *result[] = {
/* columns rows colors chars-per-pixel */
"32 32 9 1 ",
"  c black",
". c #30891F",
"X c #469A35",
"o c #53A942",
"O c #8AE368",
"+ c #9FF27F",
"@ c #ACF390",
"# c #BDF7A7",
"$ c None",
/* pixels */
"                                ",
"  OOOO+++++++++++++++@OOOOOOOOO ",
"  .Xoo+##++OO.......oo.. .. ..  ",
"  .Xoo+##++OO.......oo.. .. ..  ",
"  .Xoo+##++OO.......oo.. .. ..  ",
"  .Xoo+##++OO.......oo.. .. ..  ",
"  .Xoo+##++OO.......oo.. .. ..  ",
"  .Xoo+##++OO.......oo.. .. ..  ",
"  .Xoo+##++OO.......oo.. .. ..  ",
"  .Xoo+##++OO.......oo.. .. ..  ",
"  .Xoo+##++OO.......oo.. .. ..  ",
"  .Xoo+##++OO.......oo.. .. ..  ",
"  .Xoo+##++OO.......oo.. .. ..  ",
"                                ",
"                                ",
"$$  ooO+##++OO.....oo.. .. .  $$",
"$$  ooO+##++OO.....oo.. .. .  $$",
"$$  ooO+##++OO.....oo.. .. .  $$",
"$$  ooO+##++OO.....oo.. .. .  $$",
"$$  ooO+##++OO.....oo.. .. .  $$",
"$$  ooO+##++OO.....oo.. .. .  $$",
"$$  ooO+##++OO.....oo.. .. .  $$",
"$$  ooO+##++OO.....oo.. .. .  $$",
"$$  ooO+##++OO.....oo.. .. .  $$",
"$$  ooO+##++OO.....oo.. .. .  $$",
"$$  ooO+##++OO.....oo.. .. .  $$",
"$$  ooO+##++OO.....oo.. .. .  $$",
"$$  ooO+##++OO.....oo.. .. .  $$",
"$$  ooO+##++OO.....oo.. .. .  $$",
"$$  ooO+##++OO.....oo.. .. .  $$",
"$$  ooO+##++OO.....oo.. .. .  $$",
"$$  ooO+##++OO.....oo.. .. .  $$"
};
