/* XPM */
static char *result[] = {
/* columns rows colors chars-per-pixel */
"149 30 21 1 ",
"  c #17111A",
". c #181425",
"X c #1C1B2F",
"o c #372538",
"O c #54313B",
"+ c #753939",
"@ c #7F413D",
"# c #262B44",
"$ c #2C2E43",
"% c #303552",
"& c #423548",
"* c #3A4466",
"= c #444F70",
"- c #505C79",
"; c #67667C",
": c #894840",
"> c #7C839F",
", c #8C94AF",
"< c #8F98B2",
"1 c #9CA6BF",
"2 c #BEC6D5",
/* pixels */
".---------------------------------------------------------------------------------------------------------------------------------------------------.",
".$$$$$$$$$$$$$$$$$$$$$$$$$$$$$$$$$$$$$$$$$$$$$$$$$$$$$$$$$$$$$$$$$$$$$$$$$$$$$$$$$$$$$$$$$$$$$$$$$$$$$$$$$$$$$$$$$$$$$$$$$$$$$$$$$$$$$$$$$$$$$$$$$$$=",
"....................................................................................................................................................*",
"....................................................................................................................................................*",
".........    .......................................................................................................................................*",
".......  ::::  ......   ............................................................................................................................*",
"...... :::OO::: ...  :::  ..........................................................................................................................*",
"..... ::OO++oo:: . ::OO::: .........................................................................................................................*",
"..... :o++++++o: . oo++Oo:: ........................................................................................................................*",
"...... ++ooO+++ .. @+++++o:: .......................................................................................................................*",
"....... o++++++ .. @++Ooo+o: .......................................................................................................................*",
"....... @+++O++ .. @+++++o  ........................................................................................................................*",
"....... @ooo+++ .. @+O+++ ..........................................................................................................................*",
"........ @+++++ .. @++ooo ..........................................................................................................................*",
"........ @+++++ . @++++++ ..........................................................................................................................*",
"........ oooO++ . @++++++ ..........................................................................................................................*",
"........ ++++++ . O++Oooo ..........................................................................................................................*",
"........ ++++++ .. O+++++ ..........................................................................................................................*",
"......  &&&&+++ .. +++&&&&  ........................................................................................................................*",
"..... 1,,,>>&++ .. O+&1,,,>> .......................................................................................................................*",
".... 1>>>>>>&+O .. +&1>>>>>>> ......................................................................................................................*",
"... 1>2<>>>>>&++ . +&>2<>>>>> ......................................................................................................................*",
"... >><<>>>>;&+O . &1><<>>>>; ......................................................................................................................*",
"... >>>>>>>;;&O .. &>>>>>>>;; ......................................................................................................................*",
".... ;;;;;;;;  .... ;;;;;;;; .......................................................................................................................*",
".....        .......        ........................................................................................................................*",
"....................................................................................................................................................*",
"....................................................................................................................................................*",
".XXXXXXXXXXXXXXXXXXXXXXXXXXXXXXXXXXXXXXXXXXXXXXXXXXXXXXXXXXXXXXXXXXXXXXXXXXXXXXXXXXXXXXXXXXXXXXXXXXXXXXXXXXXXXXXXXXXXXXXXXXXXXXXXXXXXXXXXXXXXXXXXXXX%",
".###################################################################################################################################################."
};
