/* XPM */
static char *result[] = {
/* columns rows colors chars-per-pixel */
"32 32 10 1 ",
"  c #131313",
". c #391F21",
"X c #5D2C28",
"o c #1E6F50",
"O c #8A4836",
"+ c #BF6F4A",
"@ c #33984B",
"# c #5AC54F",
"$ c #99E65F",
"% c None",
/* pixels */
"##@ @#  ## ## @### @#### @###@ @",
"#$$@$$$#$$#$$#@$$$##@#$$@#$$$$#$",
"#$$@$$$#$$#$$#@@$$##@#$$@#$$$$#$",
"@#@#@#$$$@@##$$#@$$#@@#@##$@@$$#",
"o@@#@##o@###$$@oo#@$@o@o@$@oo@#@",
" oo@#oo##$$o@@o@#oo@@oo o@oo o@o",
"X oo@@o@@#@@oo o@o oo  O o  O o ",
" oo oo oo@ooo + o O  +OOX OOO+ +",
"+   o O  oo  +++ OO++OOOXOOOO+++",
"+OXX +OXX  OOO+OOO++OOOXOXOX+O++",
"OOXXOOXXXOXOOOOOOX++OOXXXOXXX++O",
"XOXXXXXXXOOOOOXOXXOO+XXXXXXOOOOO",
"XOXXXXXXXX++XXXXXXXXXXXXXXXXXXOX",
"XXXXX..XXXXXXXXXXXXXXXXX.XXXXXXX",
".XX....XXXXXXXXX.XXXXXXX..XXXXXX",
"XXXXXXXXX....XX.XXXXXX..XXXXXXX.",
"XXXXXXXXX..XXXXXXXXXXXX.XXXXXXXX",
"XXXX++XXXXXXXXOXXOXXXXXXXXXXXXXX",
"OXOOOOOXXXXXXXOXOOOOOXXXXXX+OOXX",
"OOOOOXOXXXOOXXOOO++XXXOXXXOO++XO",
"O+OOOXXXXO+OXXO+++O+XOXOXOOO++OO",
"+++OOXXOOO+OXOO++++OOOOXOOO++OOO",
"++OXXXXOO+OOXXO++++OOOXXOO+++OOO",
"+OXXXXOO+XOXOOXX+OOOOOXXOO++OO++",
"OOXXXOOOXOXO++++OO+OOXXOO++XO+++",
"OOXXXOOOOOX+++++++++OXOXXOXXX+++",
"OOXOXOOOOOX+++++O++OOXXXOOOXXO++",
"OXXXXOOOOOXO++++OOOOXXOO++OOOO++",
"OOOXOOXXXXOOXX+OOXOOXXXOOOXXOOOX",
"XXXOOXXXXXXXXXXXXXXXXXXXXXXXXXXX",
"XXXXXX%%%XXX%%XXXXXX%%%XXXXXXX%%",
"XXXXXX%%%XXX%%XXXXXX%%%XXXXXXX%%"
};
