/* XPM */
static char *result[] = {
/* columns rows colors chars-per-pixel */
"24 26 14 1 ",
"  c black",
". c #031C00",
"X c gray11",
"o c #450E00",
"O c #166500",
"+ c #1D7400",
"@ c #8E1C00",
"# c #BF2500",
"$ c #F73402",
"% c #218200",
"& c #2CB100",
"* c #B7B7B7",
"= c white",
"- c None",
/* pixels */
"------------------------",
"------------------------",
"----XX ---------- XX----",
"---X==*XX------XX===X---",
"---X====*X----X*====X---",
"---X====XX----XX====X---",
"----o#===*X--X*===@o----",
"---o##@==XX--XX==@#=o---",
"---o==#====X-X===##=o---",
"---o==#@==X-XX==@###o---",
"---o==$#==X--X==####o---",
"---o@$$$#==XX==#@==#o---",
"---o@#$$#@=XX=#@@==@o---",
"----o==$$#==X=@@@@@o----",
"----o===#$#==@@==@@o----",
"-----o=######@@==@o-----",
"------o@=###@@@@@o------",
"-------oo=#@@==oo-------",
"----...--oo+Ooo--...----",
"---.%&&..-.+O.-..+&O.---",
"---.%&&%+..%O..++&%%.---",
"---.O%%&++.%O.++&%O.----",
"----.O%+&+.%O.+&%%.-----",
"-----.O++&%%++&%%O.-----",
"------..OO%%+++%..------",
"--------..%%OO..--------"
};
