/* XPM */
static char *result[] = {
/* columns rows colors chars-per-pixel */
"24 26 13 1 ",
"  c #031C00",
". c gray11",
"X c #450E00",
"o c #166500",
"O c #1D7400",
"+ c #8E1C00",
"@ c #BF2500",
"# c #F73402",
"$ c #218200",
"% c #2CB100",
"& c #B7B7B7",
"* c white",
"= c None",
/* pixels */
"======....====....======",
"=====.&**&.==.&***.=====",
"=====.****&.=.****.=====",
"=====.******.&****.=====",
"======.****.&****.======",
"=====X@+****.***+@X=====",
"====X+@@***.****@@*X====",
"====X*@@+**&.**+@@*X====",
"===X**@#@**.***+@@@@X===",
"===X**##@***.**@@@@@X===",
"===X@@##@+*.&*+@**@+X===",
"===X+###@@*&.*@@**++X===",
"===X+**#@@*.*+@@++*+X===",
"====X**##@+.*@**+++X====",
"====X+**@#@*@@@**++X====",
"=====X+@@@@@@@++++X=====",
"======X+**@@@*+++X======",
"=======XX*@++**XX=======",
"=========XXOoXX=========",
"===   ==== Oo ====   ===",
"== o%O   = $o =   O%o ==",
"== $$%%OO  $o  OO%%$$ ==",
"===  $$%%O $o O%%$$  ===",
"===== $$$%$$OO%$$$ =====",
"======  $O$$OOO$  ======",
"========  $$oo  ========"
};
